<?xml version="1.0" standalone="no"?>
<!DOCTYPE svg PUBLIC "-//W3C//DTD SVG 20010904//EN"
 "http://www.w3.org/TR/2001/REC-SVG-20010904/DTD/svg10.dtd">
<svg version="1.0" xmlns="http://www.w3.org/2000/svg"
 width="144.000000pt" height="144.000000pt" viewBox="0 0 144.000000 144.000000"
 preserveAspectRatio="xMidYMid meet">
<metadata>
Created by potrace 1.11, written by Peter Selinger 2001-2013
</metadata>
<g transform="translate(0.000000,144.000000) scale(0.100000,-0.100000)"
fill="#000000" stroke="none">
<path d="M1110 1202 c0 -5 4 -22 10 -38 62 -185 -72 -408 -283 -471 -100 -30
-275 -9 -335 39 -18 15 -13 3 22 -46 11 -16 15 -26 8 -22 -25 15 -111 16 -157
1 -39 -14 -52 -14 -83 -4 -54 19 -81 19 -138 3 -37 -10 -62 -25 -87 -53 -43
-48 -74 -141 -47 -141 6 0 10 9 10 20 0 11 7 36 15 55 35 86 144 134 227 101
40 -15 47 -15 111 1 63 16 71 17 131 1 57 -15 67 -15 106 -2 52 18 110 12 152
-14 26 -17 34 -17 77 -6 49 12 103 10 155 -6 23 -8 33 -6 55 11 69 55 149 63
227 24 56 -28 101 -88 111 -147 3 -21 10 -38 15 -38 13 0 1 65 -19 105 -30 60
-85 102 -156 119 -16 4 -27 10 -25 14 80 153 78 297 -7 413 -33 46 -95 99 -95
81z"/>
<path d="M940 1044 c0 -7 5 -16 10 -19 14 -9 30 3 24 19 -6 16 -34 17 -34 0z"/>
<path d="M865 876 c2 -19 7 -22 35 -17 15 2 0 29 -19 34 -13 3 -17 -1 -16 -17z"/>
<path d="M588 822 c-5 -25 22 -43 39 -27 7 8 11 20 8 27 -8 20 -43 20 -47 0z"/>
<path d="M123 498 c-51 -88 -44 -105 26 -65 27 15 52 27 55 27 3 0 -5 -19 -20
-41 -21 -33 -23 -43 -13 -50 18 -10 22 -6 68 74 46 78 35 93 -36 51 -25 -14
-47 -23 -50 -20 -3 2 5 19 17 36 20 28 22 60 2 60 -4 0 -27 -33 -49 -72z"/>
<path d="M692 550 c4 -20 30 -19 34 2 1 11 -4 16 -17 15 -12 -1 -18 -7 -17
-17z"/>
<path d="M464 533 c2 -10 7 -18 12 -18 5 0 10 8 12 18 2 10 -3 17 -11 17 -9 0
-14 -8 -13 -17z"/>
<path d="M1193 542 c-20 -12 14 -192 35 -185 14 6 13 51 -4 119 -7 26 -5 26
49 -15 49 -38 77 -46 77 -23 0 7 -135 112 -142 112 -2 0 -9 -4 -15 -8z"/>
<path d="M956 514 c-6 -17 16 -35 32 -25 16 10 6 38 -13 38 -8 0 -16 -6 -19
-13z"/>
<path d="M254 407 c-39 -69 -38 -67 -16 -67 13 0 24 11 33 32 l13 32 8 -39 c5
-21 11 -41 13 -44 3 -2 19 8 35 24 l30 29 0 -42 c0 -28 4 -42 13 -42 10 0 14
18 16 60 3 80 -4 88 -44 50 l-33 -32 -7 40 c-9 58 -27 58 -61 -1z"/>
<path d="M1050 434 c-59 -14 -83 -50 -60 -91 24 -42 41 -48 94 -32 25 7 46 16
46 19 0 3 -8 30 -18 60 l-17 55 -45 -11z m30 -54 c7 -14 6 -23 -6 -34 -22 -22
-39 -20 -52 8 -20 45 35 70 58 26z"/>
<path d="M1140 415 c0 -8 6 -15 13 -15 8 0 14 7 14 15 0 8 -6 15 -14 15 -7 0
-13 -7 -13 -15z"/>
<path d="M425 354 c-4 -36 -3 -60 4 -67 15 -15 18 -9 26 43 8 54 8 54 35 45
18 -6 20 -12 14 -43 -4 -20 -7 -41 -8 -46 0 -6 6 -11 15 -13 13 -3 18 7 24 42
3 26 8 55 10 65 3 14 -5 19 -33 24 -77 12 -79 11 -87 -50z"/>
<path d="M920 375 c-19 -31 -42 -47 -39 -27 1 4 1 17 0 30 -1 27 -31 30 -31 3
0 -41 13 -111 21 -111 5 0 19 16 31 35 28 43 38 44 38 5 0 -23 5 -30 19 -30
16 0 17 5 11 43 -5 23 -9 43 -9 45 -1 1 -1 11 -1 22 0 30 -16 24 -40 -15z"/>
<path d="M581 382 c-32 -29 -35 -69 -7 -97 28 -28 63 -32 92 -10 21 15 18 17
-40 19 -16 0 -31 7 -34 14 -3 11 7 13 47 10 43 -4 51 -2 51 13 0 48 -73 82
-109 51z m66 -29 c4 -10 -11 -11 -57 -4 -3 1 2 6 10 11 19 12 42 9 47 -7z"/>
<path d="M755 391 c-2 -5 -15 -6 -28 -4 -23 5 -24 2 -21 -44 1 -26 3 -67 3
-91 1 -49 24 -55 29 -9 3 23 7 26 30 21 40 -8 66 16 66 60 0 20 -7 43 -15 51
-18 18 -56 27 -64 16z m49 -76 c-7 -17 -40 -29 -54 -20 -18 11 -12 63 8 68 21
5 53 -29 46 -48z"/>
</g>
</svg>
